<svg id="visual" viewBox="0 0 900 600" width="900" height="600" xmlns="http://www.w3.org/2000/svg" xmlns:xlink="http://www.w3.org/1999/xlink" version="1.1"><rect x="0" y="0" width="900" height="600" fill="#170B07"></rect><path d="M0 446L100 417L200 446L300 373L400 431L500 447L600 366L700 354L800 381L900 352L900 601L800 601L700 601L600 601L500 601L400 601L300 601L200 601L100 601L0 601Z" fill="#e6a087"></path><path d="M0 448L100 429L200 434L300 446L400 432L500 406L600 456L700 462L800 443L900 425L900 601L800 601L700 601L600 601L500 601L400 601L300 601L200 601L100 601L0 601Z" fill="#d4866a"></path><path d="M0 453L100 470L200 506L300 510L400 444L500 501L600 464L700 489L800 475L900 447L900 601L800 601L700 601L600 601L500 601L400 601L300 601L200 601L100 601L0 601Z" fill="#c26c4d"></path><path d="M0 481L100 498L200 510L300 492L400 497L500 535L600 531L700 535L800 518L900 501L900 601L800 601L700 601L600 601L500 601L400 601L300 601L200 601L100 601L0 601Z" fill="#af5231"></path><path d="M0 526L100 564L200 550L300 548L400 549L500 572L600 550L700 531L800 556L900 557L900 601L800 601L700 601L600 601L500 601L400 601L300 601L200 601L100 601L0 601Z" fill="#9b3815"></path></svg>